<svg width="308" height="75" viewBox="0 0 308 75" fill="none" xmlns="http://www.w3.org/2000/svg">
<path fill-rule="evenodd" clip-rule="evenodd" d="M31.616 23.864L32.496 16.76H0V38.984C9.32281 36.4078 16.5513 35.912 22.6246 36.6954C24.0908 36.8846 25.4836 37.1475 26.816 37.4709V34.552H8.832V23.864H31.616ZM26.816 40.5059C25.3655 40.1216 23.8449 39.816 22.2301 39.6077C16.4847 38.8666 9.4342 39.3435 0 42.041V59H8.832V41.72H26.816V40.5059ZM29.9873 41.5017C32.4592 42.3981 34.7595 43.5093 37.0342 44.7241C37.6501 45.053 38.2645 45.39 38.8801 45.7325C39.5383 50.6788 42.1143 53.112 46.328 53.112C48.0414 53.112 49.4841 52.7097 50.6371 51.8996C53.1551 52.9833 55.8785 53.9392 58.9185 54.6548C56.1074 57.8783 51.8171 59.64 46.328 59.64C36.024 59.64 29.944 53.432 29.944 43C29.944 42.4904 29.9585 41.9909 29.9873 41.5017ZM60.7048 52.0444C62.0191 49.5618 62.712 46.5216 62.712 43C62.712 32.568 56.632 26.36 46.328 26.36C37.6021 26.36 31.9055 30.812 30.3652 38.5112C33.2832 39.514 35.9301 40.7857 38.4795 42.1472C38.5606 42.1905 38.6416 42.2339 38.7225 42.2773C38.9094 35.9796 41.5783 32.888 46.328 32.888C51.256 32.888 53.944 36.216 53.944 43C53.944 45.7465 53.5034 47.9266 52.652 49.5487C55.107 50.5608 57.749 51.4258 60.7048 52.0444ZM66.393 55.8165V59H75.161V55.9385C73.8316 55.9789 72.4654 56 71.0596 56C69.4301 56 67.8772 55.9362 66.393 55.8165ZM75.161 52.9995C73.8327 53.0408 72.4667 53.0624 71.0596 53.0624C69.4224 53.0624 67.8704 52.9955 66.393 52.8701V27H74.009L74.585 33.272C76.249 28.856 79.513 26.36 84.505 26.36C85.913 26.36 87.193 26.616 87.961 27.064L86.873 34.744C85.977 34.168 84.505 33.784 82.841 33.784C79.001 33.784 75.161 36.6 75.161 42.424V52.9995ZM91.9778 54.2489C94.7937 57.7403 99.2765 59.64 105.184 59.64C112.416 59.64 117.344 56.888 119.392 51.768L112.539 49.2595C112.407 49.2956 112.274 49.3318 112.14 49.3681C111.183 51.7861 108.786 53.112 105.184 53.112C103.671 53.112 102.342 52.8412 101.215 52.2885C98.3026 53.0063 95.253 53.6788 91.9778 54.2489ZM98.5469 49.9037C95.9293 50.5144 93.1969 51.0774 90.2843 51.5537C89.1387 49.1698 88.544 46.3 88.544 43C88.544 32.504 94.368 26.36 104.672 26.36C114.656 26.36 120.096 32.376 120.096 42.872C120.096 43.2542 120.073 43.7878 120.036 44.3387C117.331 44.9409 114.712 45.6212 112.104 46.328H97.184C97.4602 47.7485 97.9189 48.9379 98.5469 49.9037ZM123.496 46.619C124.759 54.8941 130.537 59.64 139.874 59.64C148.002 59.64 152.994 55.672 154.338 49.976L146.402 47.416C145.762 51.064 143.586 53.112 139.746 53.112C135.575 53.112 132.745 50.6302 132.128 45.3605C129.092 45.6465 126.244 46.0826 123.496 46.619ZM132.011 42.4211C128.92 42.7062 126.023 43.1408 123.242 43.6734C123.237 43.451 123.234 43.2265 123.234 43C123.234 32.504 129.314 26.36 139.554 26.36C148.578 26.36 152.674 30.52 154.21 35.768L146.018 38.712C145.25 34.872 143.202 32.888 139.81 32.888C134.98 32.888 132.187 36.1237 132.011 42.4211ZM158.84 46.0518C157.456 47.5789 156.792 49.3881 156.792 51.448C156.792 56.824 160.632 59.64 166.712 59.64C172.088 59.64 176.12 57.976 178.04 54.84C178.936 58.296 181.56 59.64 185.4 59.64C187 59.64 188.408 59.32 189.56 58.744L190.2 53.432C189.56 53.624 188.792 53.688 188.023 53.688C186.359 53.688 185.656 52.92 185.656 51.256V50.4546C183.179 50.079 180.481 49.573 177.56 49.0251L177.56 49.025C177.353 48.9863 177.146 48.9474 176.937 48.9083C176.67 52.0755 172.678 53.688 169.464 53.688C167.16 53.688 165.816 52.6 165.816 50.552C165.816 48.9811 166.63 48.0122 168.206 47.3554C165.292 46.8813 162.175 46.4304 158.84 46.0518ZM175.297 45.6111C174.44 45.4532 173.558 45.293 172.652 45.1319C169.483 44.5687 166.043 44.0046 162.31 43.5158C164.146 42.593 166.457 41.8611 169.271 41.336L176.952 39.864V38.328C176.952 34.936 174.967 32.76 171.512 32.76C167.799 32.76 165.112 34.168 164.152 38.2L157.176 35.256C158.52 29.816 163.32 26.36 171.128 26.36C180.023 26.36 185.656 30.2 185.656 38.136V47.482C183.452 47.1353 181.029 46.6816 178.349 46.1796L178.349 46.1795C177.891 46.0937 177.425 46.0065 176.952 45.9181V45.24L175.297 45.6111ZM197.872 50.5816C199.807 52.5773 202.593 53.24 205.893 53.24C209.669 53.24 211.781 52.088 211.781 50.36C211.781 49.2796 210.851 48.5095 208.508 47.7967C209.268 47.5653 210.034 47.3297 210.804 47.093C211.384 46.9144 211.967 46.7352 212.551 46.5566C214.685 45.9039 216.84 45.2585 218.991 44.671C220.117 46.0511 220.613 47.7062 220.613 49.72C220.613 55.48 215.557 59.64 206.021 59.64C199.43 59.64 194.117 57.848 191.173 53.496L193.52 51.0906C194.896 51.0413 196.355 50.8584 197.872 50.5816ZM216.154 42.4095C214.631 42.8478 213.126 43.3024 211.651 43.7535C211.055 43.9355 210.465 44.117 209.88 44.2969L209.88 44.297C207.378 45.0664 204.974 45.8056 202.692 46.4308C194.79 44.4388 192.07 41.4671 192.07 36.664C192.07 31.48 196.997 26.36 206.469 26.36C213.829 26.36 217.798 28.536 220.742 33.144L215.301 37.752C213.445 34.424 210.885 32.76 206.598 32.76C203.014 32.76 200.837 34.168 200.837 35.832C200.837 37.56 202.438 38.648 207.813 39.736C211.428 40.4539 214.161 41.3154 216.154 42.4095ZM228.182 42.6467V49.976C228.182 57.016 232.533 59.64 238.87 59.64C242.262 59.64 245.59 58.68 247.637 57.016L246.294 51.192C244.949 52.344 243.478 52.984 241.365 52.984C238.613 52.984 236.949 51.64 236.949 48.568V42.1753C236.105 42.1546 235.244 42.1436 234.363 42.1436C232.358 42.1436 230.289 42.3286 228.182 42.6467ZM236.949 39.2369C236.105 39.2168 235.244 39.206 234.363 39.206C232.341 39.206 230.271 39.3795 228.182 39.6772V33.528H222.357V27H228.182V19.64L236.949 17.208V27H247.318V33.528H236.949V39.2369ZM249.539 43.1414C249.593 53.5512 255.603 59.64 266.179 59.64C273.411 59.64 278.339 56.888 280.387 51.768L273.219 49.144C272.323 51.704 269.891 53.112 266.179 53.112C261.891 53.112 259.075 50.936 258.179 46.328H280.835C280.963 45.496 281.091 43.768 281.091 42.872C281.091 42.8385 281.091 42.805 281.091 42.7715C278.174 44.0921 275.026 44.9873 271.581 44.9873C264.669 44.9873 258.888 44.2791 253.148 43.576L252.969 43.554C251.828 43.4143 250.688 43.275 249.539 43.1414ZM280.897 39.5941C277.961 41.068 274.918 42.0497 271.581 42.0497C264.858 42.0497 259.235 41.3609 253.469 40.6547L253.344 40.6393C252.135 40.4912 250.919 40.3427 249.687 40.2002C250.655 31.4198 256.316 26.36 265.667 26.36C274.56 26.36 279.848 31.1332 280.897 39.5941ZM284.613 40.9383V59H293.381V42.424C293.381 36.6 297.221 33.784 301.061 33.784C302.725 33.784 304.197 34.168 305.093 34.744L305.631 30.9446C303.242 30.867 300.445 31.4501 298.22 32.4716C295.651 33.6514 293.113 35.3643 290.384 37.2133L290.183 37.3498C288.413 38.5493 286.565 39.8023 284.613 40.9383ZM306.045 28.022L306.181 27.064C305.413 26.616 304.133 26.36 302.725 26.36C298.393 26.36 295.362 28.2398 293.549 31.623C294.665 30.9553 295.795 30.3389 296.939 29.8136C299.533 28.6223 302.957 27.8585 306.045 28.022ZM292.701 32.1409C291.346 32.985 290.009 33.8907 288.689 34.7853L288.667 34.8006C287.308 35.7211 285.964 36.6299 284.613 37.4764V27H292.229L292.701 32.1409ZM104.608 32.824C108.64 32.824 111.328 35.384 112.032 40.184H97.12C97.824 35.32 100.384 32.824 104.608 32.824ZM265.603 32.824C269.635 32.824 272.323 35.384 273.027 40.184H258.115C258.819 35.32 261.379 32.824 265.603 32.824Z" fill="black"/>
</svg>
